<?xml version="1.0" standalone="no"?><!DOCTYPE svg PUBLIC "-//W3C//DTD SVG 1.1//EN" "http://www.w3.org/Graphics/SVG/1.1/DTD/svg11.dtd"><svg t="1563760436885" class="icon" viewBox="0 0 1228 1024" version="1.1" xmlns="http://www.w3.org/2000/svg" p-id="2002" xmlns:xlink="http://www.w3.org/1999/xlink" width="86.34375" height="72"><defs><style type="text/css"></style></defs><path d="M821.058 335.199c-109.656 5.733-205.08 39.009-282.483 114.16-78.274 75.868-114.007 168.886-104.229 284.12-42.848-5.272-81.909-11.108-121.174-14.435-13.566-1.127-29.691 0.511-41.159 6.962-38.138 21.5-74.741 45.817-118.05 72.899 7.985-35.938 13.105-67.422 22.217-97.728 6.655-22.269 3.584-34.657-16.894-49.145C27.566 559.066-27.926 419.923 13.642 276.685 52.037 144.198 146.437 63.825 274.675 21.95c175.03-57.183 371.712 1.126 478.143 140.064a327.533 327.533 0 0 1 68.24 173.186z m-504.814-44.64c1.024-26.16-21.706-49.811-48.633-50.58a49.145 49.145 0 0 0-51.193 47.508 48.53 48.53 0 0 0 48.121 50.374 49.964 49.964 0 0 0 51.705-47.303z m263.388-50.58c-27.081 0.513-49.965 23.55-49.453 49.863 0.512 27.234 22.935 48.582 50.733 48.224a48.48 48.48 0 0 0 48.838-49.709 48.787 48.787 0 0 0-50.17-48.377z" fill="" p-id="2003"></path><path d="M1070.163 1019.495c-34.71-15.46-66.551-38.702-100.492-42.234-33.787-3.532-69.315 15.972-104.69 19.607-107.658 11.006-204.157-18.993-283.711-92.557-151.275-139.962-129.672-354.563 45.357-469.235 155.627-101.874 383.742-67.933 493.449 73.513 95.73 123.375 84.468 287.193-32.405 390.859-33.788 29.999-45.972 54.725-24.266 94.246 3.993 7.32 4.454 16.586 6.758 25.801zM674.8 636.675a40.954 40.954 0 0 0 41.159-39.112 41.16 41.16 0 0 0-40.852-42.644 41.569 41.569 0 0 0-41.364 42.336 41.21 41.21 0 0 0 41.057 39.42z m254.89-81.654a40.903 40.903 0 0 0-40.546 39.112 40.238 40.238 0 0 0 40.033 42.285 39.828 39.828 0 0 0 40.494-38.804 40.596 40.596 0 0 0-39.982-42.593z" fill="" p-id="2004"></path></svg>